<svg version="1" xmlns="http://www.w3.org/2000/svg" width="1202.667" height="1202.667" viewBox="0 0 902.000000 902.000000"><path d="M649.3 278.7c-.9.3-.4 1.8 1.5 4.6 12.8 18.7 18.9 38.5 21.2 68.7.6 8 1.5 19.9 2 26.5.5 6.6 1.9 15.6 3 20 4.6 18.4 15.8 34.3 28.2 40.2l6.3 3-5.5 2.8c-6.9 3.5-15.6 12.3-19.7 20-7.1 13.6-10.3 30.1-10.3 53.5-.1 25.4-2.8 44.1-9.2 62.5-3.5 10.2-5.8 15.2-9.9 21.2-1.6 2.3-2.9 4.4-2.9 4.8 0 .3 7.8.4 17.2.3l17.3-.3 3.6-6c5.2-8.8 10.7-22.1 13.4-33 2.9-11.4 4.2-23.4 5.5-52.5 1-23 2.5-32.5 6.5-40.5 4.7-9.6 14.3-17.1 23.3-18.2 2.7-.3 5.5-.9 6.1-1.2.7-.5.8-5.1.4-14.4l-.6-13.7h-2.6c-6.1 0-15.6-3.9-20.8-8.4-2.9-2.5-7.7-10.7-9.9-16.7-2.4-6.9-4.2-18.2-5.4-34.4-2.8-37.9-3.5-42.6-9.8-59.5-4.6-12.4-7.1-17.6-12-24.8l-3.6-5.3-16.1.2c-8.8.1-16.6.4-17.2.6zM592.5 279.7c-2.2.2-4.5 1-5 1.7-.6.7-4.9 5.6-9.6 10.7-18.2 19.9-39.8 43.7-48.8 53.8-5.2 5.8-14.3 15.8-20.3 22.3-11.2 12-12.8 13.7-20.4 22.4l-4.4 5.1.1 8.9c.1 4.9.4 9.9.7 11.1.8 2.4 8 11 33.7 39.8 9.4 10.5 21 23.8 26 29.5 11 12.9 37.4 42.8 43.4 49.2l4.4 4.8h23.4c13.6 0 23.3-.4 23.3-.9 0-1-10.6-13-33-37.4-8-8.8-20.5-22.7-27.8-31-7.4-8.4-15.3-17.2-17.6-19.7-2.3-2.5-9.1-9.9-15.1-16.5-6.1-6.6-11.2-12.2-11.5-12.5-4.5-4.4-15.1-17.2-14.8-17.9.1-.5 4.8-5.8 10.4-11.8 5.5-5.9 13.4-14.5 17.5-18.9 4.1-4.5 15-16.4 24.3-26.5 9.3-10.1 21-22.9 26-28.3 5-5.5 14.7-16 21.6-23.3 6.9-7.4 12.7-13.8 12.8-14.3.4-1-30.2-1.1-39.3-.3zM421.6 282.7l-5.8.4.6 57.7c.4 31.7.9 60.6 1.1 64.2.2 3.6.7 27.9 1.1 54 .4 26.1.8 48.6.9 50 .1 1.4.3 9.4.3 17.7l.2 15.3h35.3l-.7-39.3c-.4-21.5-1.1-60.4-1.6-86.2-.5-25.9-1.2-65.5-1.6-88-.4-22.6-.7-42.1-.8-43.5l-.1-2.5-11.5-.1c-6.3 0-14.1.1-17.4.3zM255 284.2c-3 .4-10.2 1.5-15.9 2.4-22.3 3.3-38.9 11.2-51.3 24.2-14.1 14.8-19.2 31.8-16.8 55.7 1.4 13.4 2.5 18.1 6.1 26.3 8.3 18.5 23.6 29.5 48.3 34.8 5.3 1.1 14.8 1.4 40.5 1.5 25.8 0 35 .3 39.8 1.4 20.7 4.8 30.3 18.1 30.4 41.8 0 21.3-14.3 37.7-37.8 43.3-7.6 1.8-33.7 3.3-48.3 2.7-15.8-.6-50.3-6.6-61.9-10.7-2.4-.9-4.7-1.6-5.2-1.6-1 0-1 17.7-.1 26l.7 5.4 7.5 1.8c23.5 5.5 42.2 7.3 76 7.3 20.5 0 25-.3 35-2.3 25.8-5.2 37.3-10.4 49.5-22.6 14.1-14.1 18.9-27.2 19-52.1 0-15.7-1.5-23.3-6.6-34.2-7.3-15.3-19.9-26-36.9-31.3-13.1-4.1-24.9-5.1-58-4.9-30.6.2-35.7-.4-45.1-5.4-10.7-5.6-17.4-16.4-18.5-29.9-2.6-30.9 17.4-48.8 58-51.7 29.1-2 51.6.3 82.4 8.5 7.3 2 13.4 3.5 13.5 3.3.1-.2 0-7.4-.3-15.9l-.5-15.4-7.5-1.8c-27.4-6.4-75.4-9.8-96-6.6zM123.9 287.7l-15.6.3-4.1 7.3c-6.5 11.5-11.6 25.6-14.8 41.2-.9 4.1-1.8 17.5-2.4 32.5-.8 26.5-1.7 34-5.2 45-4.7 14.6-13.6 22.9-26.6 24.6l-5.3.7.3 14.1.3 14.1 5.8.7c14.6 1.8 23 10.1 28.5 27.9 2.3 7.4 3.6 18 5.2 43.4 1.9 28.4 7.1 47.9 17.9 66.6 6.8 12 4.3 10.9 24 10.1l17.3-.7-3.6-5.2c-7.1-10.3-13-24-16.1-37.7-2.8-11.9-5.4-33.3-5.9-48.6-.7-18.3-2.2-26.4-7-38.4-6.3-15.6-13.8-24.6-25.3-30.2l-5.5-2.7 3.8-1.9c20.8-10.1 31.6-34.5 31.5-71.1-.1-37.9 6.6-68.3 18.9-86.2 3-4.3 3.2-6.8.7-6.3-.7.1-8.2.4-16.8.5zM807.5 345.2c-.3.7-.3 2.9-.1 4.8.2 1.9.4 9.2.5 16.2l.1 12.8h16.9c9.4 0 17.2-.3 17.4-.8.3-.4.2-8.2-.1-17.5l-.5-16.7h-16.9c-12.6 0-17 .3-17.3 1.2zM823.8 500.8l-13.7.3-4.7 14.7c-2.5 8.1-8.4 25.9-12.9 39.7-4.6 13.7-8 25.4-7.5 25.9.4.4 8.3.5 17.4.1l16.6-.7 7.1-22.2c4-12.1 9.8-29.9 13-39.5 3.2-9.6 5.6-17.7 5.3-18-.6-.6-2.9-.7-20.6-.3z"/></svg>